HIERARCHY
ROOT SimulationBone
{
	OFFSET 0.000000 0.000000 0.000000
	CHANNELS 6 Xposition Yposition Zposition Zrotation Yrotation Xrotation 
	JOINT Hips
	{
		OFFSET 0.000000 0.000000 0.000000
		CHANNELS 6 Xposition Yposition Zposition Zrotation Yrotation Xrotation 
		JOINT RightUpLeg
		{
			OFFSET 0.103459 1.857823 10.548503
			CHANNELS 3 Zrotation Yrotation Xrotation
			JOINT RightLeg
			{
				OFFSET 43.499996 -0.000023 0.000000
				CHANNELS 3 Zrotation Yrotation Xrotation
				JOINT RightFoot
				{
					OFFSET 42.372200 0.000004 0.000000
					CHANNELS 3 Zrotation Yrotation Xrotation
					JOINT RightToe
					{
						OFFSET 17.300018 0.000006 0.000005
						CHANNELS 3 Zrotation Yrotation Xrotation
						End Site
						{
							OFFSET 0.000000 0.000000 0.000000
						}
					}
				}
			}
		}
		JOINT LeftUpLeg
		{
			OFFSET 0.103455 1.857822 -10.548502
			CHANNELS 3 Zrotation Yrotation Xrotation
			JOINT LeftLeg
			{
				OFFSET 43.500046 0.000008 0.000013
				CHANNELS 3 Zrotation Yrotation Xrotation
				JOINT LeftFoot
				{
					OFFSET 42.372261 -0.000023 0.000013
					CHANNELS 3 Zrotation Yrotation Xrotation
					JOINT LeftToe
					{
						OFFSET 17.299988 -0.000007 0.000011
						CHANNELS 3 Zrotation Yrotation Xrotation
						End Site
						{
							OFFSET 0.000000 0.000000 0.000000
						}
					}
				}
			}
		}
		JOINT Spine
		{
			OFFSET 6.901964 -2.603734 -0.000001
			CHANNELS 3 Zrotation Yrotation Xrotation
			JOINT Spine1
			{
				OFFSET 12.588106 0.000013 -0.000000
				CHANNELS 3 Zrotation Yrotation Xrotation
				JOINT Spine2
				{
					OFFSET 12.343193 -0.000017 0.000001
					CHANNELS 3 Zrotation Yrotation Xrotation
					JOINT Neck
					{
						OFFSET 25.832893 -0.000002 -0.000002
						CHANNELS 3 Zrotation Yrotation Xrotation
						JOINT Head
						{
							OFFSET 11.766612 0.000007 0.000002
							CHANNELS 3 Zrotation Yrotation Xrotation
							End Site
							{
								OFFSET 0.000000 0.000000 0.000000
							}
						}
					}
					JOINT RightShoulder
					{
						OFFSET 19.745903 -1.480356 6.000103
						CHANNELS 3 Zrotation Yrotation Xrotation
						JOINT RightArm
						{
							OFFSET 11.284128 0.000005 -0.000009
							CHANNELS 3 Zrotation Yrotation Xrotation
							JOINT RightForeArm
							{
								OFFSET 33.000053 -0.000022 0.000028
								CHANNELS 3 Zrotation Yrotation Xrotation
								JOINT RightHand
								{
									OFFSET 25.200006 0.000028 0.000005
									CHANNELS 3 Zrotation Yrotation Xrotation
									End Site
									{
										OFFSET 0.000000 0.000000 0.000000
									}
								}
							}
						}
					}
					JOINT LeftShoulder
					{
						OFFSET 19.746094 -1.480350 -6.000075
						CHANNELS 3 Zrotation Yrotation Xrotation
						JOINT LeftArm
						{
							OFFSET 11.284135 -0.000011 -0.000017
							CHANNELS 3 Zrotation Yrotation Xrotation
							JOINT LeftForeArm
							{
								OFFSET 33.000092 0.000037 0.000003
								CHANNELS 3 Zrotation Yrotation Xrotation
								JOINT LeftHand
								{
									OFFSET 25.199785 0.000114 0.000427
									CHANNELS 3 Zrotation Yrotation Xrotation
									End Site
									{
										OFFSET 0.000000 0.000000 0.000000
									}
								}
							}
						}
					}
				}
			}
		}
	}
}
MOTION
Frames: 6
Frame Time: 0.033333
-310.958731 0.000000 415.207062 180.000000 -88.584085 180.000000 -7.714102 83.504089 3.230271 89.816686 3.175355 -166.741454 138.740376 -1.312604 -178.015371 -44.050171 3.507657 0.057926 80.254812 -1.421446 -5.447341 21.454558 0.003100 0.000016 -179.997177 -6.992294 -173.775189 -44.716740 2.727538 -4.982292 99.088573 2.165907 -12.866292 21.454551 -0.003088 -0.000001 12.531992 -0.098798 1.815581 15.044446 -0.433074 3.602741 14.727006 -0.411453 3.605270 0.777642 -8.251433 -5.975697 -27.584988 12.910050 -13.694351 -171.523317 -74.424753 -10.092725 9.123187 50.537645 26.905316 -39.188029 -24.249067 2.068280 11.324713 -46.938122 -2.849626 -154.539013 82.618576 27.339106 -18.941043 -39.257001 -23.480239 -55.477750 20.677602 -2.319815 -11.078330 20.035279 -17.746276 
-309.787750 0.000000 418.690267 0.000000 -88.009164 0.000000 -6.635003 84.307327 2.784644 89.328579 2.572609 -172.065067 140.304995 -1.337007 179.858456 -37.245687 2.146959 2.481446 76.759954 -3.157401 -4.964955 21.454557 0.003112 0.000017 -175.092391 -6.476306 -177.488094 -39.770771 2.973004 -4.679922 95.115609 1.639127 -12.011869 21.454551 -0.003089 0.000000 12.136107 -0.434341 1.918687 14.241875 -1.101770 3.769269 13.924445 -1.079137 3.775822 1.126004 -7.411569 -5.448725 -26.158938 12.780736 -12.716749 -169.643922 -74.187309 -12.018609 12.197428 52.441414 31.913219 -37.233099 -23.270489 1.952066 8.575325 -41.505789 -1.061794 -146.979524 82.314612 34.993900 -16.743507 -41.461318 -23.528159 -54.427394 20.669611 -2.281610 -7.340754 22.888965 -11.626212 
-308.774845 0.000000 422.273301 0.000000 -85.223867 0.000000 -5.589565 84.922821 2.429077 88.968522 1.930389 -176.395745 141.935142 -0.399594 179.742206 -35.448149 1.627398 2.834162 74.654582 -2.783746 -2.577527 21.454558 0.003121 0.000019 -171.194511 -5.242401 179.941866 -36.459690 3.422694 -4.861092 90.204416 1.555006 -10.163866 21.454550 -0.003102 0.000003 11.734213 -0.738665 2.043752 13.427243 -1.709696 3.988139 13.109819 -1.685725 3.998349 2.075820 -6.988252 -5.146143 -25.433722 13.091031 -12.316689 -170.073186 -73.982553 -11.577886 14.339499 53.631789 35.574368 -35.037989 -22.434393 1.842898 8.111958 -29.362324 -0.453368 -144.089944 81.881216 37.932723 -13.775072 -43.492008 -25.404860 -53.023886 21.045467 -2.257773 -2.673380 25.758115 -4.512928 
-307.909416 0.000000 425.949341 0.000000 -82.977761 0.000000 -4.591185 85.013939 2.123405 89.147338 1.533471 -179.672026 143.068079 0.766406 -179.944325 -39.761338 2.220424 1.854312 76.432378 -1.144982 0.637941 21.454557 0.003110 0.000016 -169.053015 -3.833996 178.944987 -37.221433 4.033269 -5.632919 84.851604 2.144934 -7.593593 21.454555 -0.003096 -0.000000 11.444730 -0.923080 2.099875 12.841660 -2.073630 4.084693 12.524218 -2.049082 4.097106 2.798229 -6.886916 -5.122175 -24.322749 12.932242 -12.002230 -170.560192 -73.587017 -11.077064 15.307555 54.276716 37.656595 -33.045135 -21.475064 1.734538 6.153252 -14.478439 1.769966 -142.515708 82.172934 39.513461 -10.187228 -45.571241 -27.880159 -51.587736 21.237010 -2.221183 1.275545 26.270192 1.292991 
-307.180863 0.000000 429.711567 0.000000 -81.197327 0.000000 -3.737082 85.105568 1.838787 89.492715 1.164558 177.538689 144.461793 1.314098 -179.587161 -44.348872 2.172890 0.762748 80.096064 -0.360898 0.771491 21.454558 0.003108 0.000016 -169.998627 -1.995614 -177.991192 -43.473594 2.230129 -8.292651 78.635490 5.403991 -1.085418 21.454546 -0.003100 0.000010 11.264564 -1.120508 2.136668 12.474513 -2.464925 4.140693 12.156999 -2.440023 4.155466 2.941202 -6.297298 -4.931155 -22.952292 12.631916 -11.387709 -171.576715 -73.420374 -10.033087 14.403076 54.606119 38.260302 -31.790098 -20.419329 1.639196 6.820213 1.245797 6.077860 -143.862881 82.238025 38.148703 -7.533863 -47.280912 -30.405786 -49.981176 21.639428 -2.194200 4.065779 25.062715 4.473527 
-306.578586 0.000000 433.553158 0.000000 -79.819785 0.000000 -3.199506 85.099083 1.570555 90.057295 0.963079 175.516101 146.190869 1.517699 179.767983 -48.178280 2.231639 0.572070 83.446962 -0.168463 1.150867 21.454558 0.003096 0.000017 -172.888672 -0.156484 -176.459836 -52.935445 1.256891 -9.363138 74.715111 8.558008 6.628791 21.454557 -0.003096 -0.000001 11.229196 -1.253299 2.094445 12.400862 -2.723931 4.043298 12.083230 -2.699608 4.059642 2.978797 -5.937400 -4.624670 -21.923818 12.590911 -10.857833 -173.283033 -73.019462 -8.278319 11.147617 54.496601 37.182597 -30.493950 -19.673515 1.564397 5.356181 14.001703 12.019308 -149.758236 81.841922 32.197290 -5.854766 -48.081315 -32.129586 -48.292026 21.584742 -2.135010 5.334304 23.409613 6.317580 
